  <svg
                xmlns="http://www.w3.org/2000/svg"
                xmlns:xlink="http://www.w3.org/1999/xlink"
                width="100%"
                height="100%"
                viewBox="0 0 800 706.001"
                preserveAspectRatio="xMinYMin slice"
                >
                <defs>
                  <lineargradient
                    id="linear-gradient"
                    x1="0.044"
                    y1="0.559"
                    x2="0"
                    y2="0.559"
                    gradientUnits="objectBoundingBox"
                  >
                    <stop offset="0" stop-color="#cfcfcf" />
                    <stop offset="1" stop-color="#252525" />
                  </lineargradient>
                </defs>
                <g
                  id="Subtraction_2"
                  data-name="Subtraction 2"
                  transform="translate(1990 0)"
                  fill="url(#linear-gradient)"
                >
                  <path
                    d="M -1343.499755859375 785.4996948242188 L -1989.5 785.4996948242188 L -1989.5 0.5000966787338257 L -1343.499877929688 0.4999968111515045 L -1343.499755859375 314.5016784667969 C -1364.24951171875 314.6307678222656 -1383.757080078125 322.79296875 -1398.482299804688 337.5180969238281 C -1413.325439453125 352.3615112304688 -1421.500122070312 372.0654907226562 -1421.500122070312 393.0003051757812 C -1421.500122070312 436.1185607910156 -1386.556396484375 471.228759765625 -1343.499877929688 471.4981384277344 L -1343.499755859375 785.4996948242188 Z"
                    stroke="none"
                  />
                  <path
                    d="M -1343.999755859375 784.9996948242188 L -1343.999877929688 471.9934692382812 C -1387.100219726562 471.4541625976562 -1422.000122070312 436.2257080078125 -1422.000122070312 393.0003051757812 C -1422.000122070312 371.931884765625 -1413.7734375 352.1023864746094 -1398.835815429688 337.1646118164062 C -1384.134643554688 322.4633178710938 -1364.6962890625 314.2623901367188 -1343.999755859375 314.0063171386719 L -1343.999877929688 0.9999969005584717 L -1989 1.000096559524536 L -1989 784.9996948242188 L -1343.999755859375 784.9996948242188 M -1342.999755859375 786.0007934570312 L -1342.999877929688 785.9996948242188 L -1990 785.9996948242188 L -1990 9.672851592767984e-05 L -1342.999877929688 -3.271484274591785e-06 L -1342.999755859375 315.0000915527344 C -1363.8017578125 315.0006103515625 -1383.379760742188 323.122802734375 -1398.128662109375 337.8717041015625 C -1412.87744140625 352.62060546875 -1421.000122070312 372.1988830566406 -1421.000122070312 393.0003051757812 C -1421.000122070312 436.0093078613281 -1386.009399414062 470.9996948242188 -1342.999877929688 470.9996948242188 L -1342.999755859375 786.0007934570312 Z"
                    stroke="none"
                    fill="#707070"
                  />
                </g>
              </svg>
